# xmcd
#
# Track frame offsets: 
#        192
#        20547
#        37202
#        53940
#        69995
#        86170
#        107400
#        133770
#        151867
#        172710
#        190697
#
# Disc length: 2789 seconds
#
# Revision: 2
# Processed by: cddbd v1.5.2PL0 Copyright (c) Steve Scherf et al.
# Submitted via: ExactAudioCopy v1.0b3
#
DISCID=880ae30b
DTITLE=Johnny Adams - Sings Doc Pomus: The Real Me
DYEAR=1991
DGENRE=Blues
TTITLE0=Imitation of Love
TTITLE1=Still in Love
TTITLE2=There is Always One More Time
TTITLE3=My Baby's Quit Me
TTITLE4=She's Everything to Me
TTITLE5=I Underestimated You
TTITLE6=Blinded By Love
TTITLE7=Prisoner of Life
TTITLE8=The Night is a Hunter
TTITLE9=No One
TTITLE10=The Real Me
EXTD=
EXTT0=
EXTT1=
EXTT2=
EXTT3=
EXTT4=
EXTT5=
EXTT6=
EXTT7=
EXTT8=
EXTT9=
EXTT10=
PLAYORDER=
